<svg width="20" height="20" viewBox="0 0 20 20" fill="none" xmlns="http://www.w3.org/2000/svg">
<path d="M9.9999 6.68638C8.17532 6.68638 6.68633 8.17537 6.68633 9.99994C6.68633 11.8245 8.17532 13.3135 9.9999 13.3135C11.8245 13.3135 13.3135 11.8245 13.3135 9.99994C13.3135 8.17537 11.8245 6.68638 9.9999 6.68638ZM19.9381 9.99994C19.9381 8.62778 19.9505 7.26805 19.8735 5.89838C19.7964 4.30747 19.4335 2.89554 18.2701 1.73218C17.1043 0.566346 15.6949 0.205906 14.1039 0.128847C12.7318 0.0517869 11.3721 0.0642159 10.0024 0.0642159C8.63022 0.0642159 7.27049 0.0517869 5.90082 0.128847C4.30991 0.205906 2.89798 0.568832 1.73463 1.73218C0.568788 2.89802 0.208348 4.30747 0.131288 5.89838C0.0542283 7.27054 0.0666574 8.63027 0.0666574 9.99994C0.0666574 11.3696 0.0542283 12.7318 0.131288 14.1015C0.208348 15.6924 0.571274 17.1043 1.73463 18.2677C2.90046 19.4335 4.30991 19.794 5.90082 19.871C7.27298 19.9481 8.63271 19.9357 10.0024 19.9357C11.3745 19.9357 12.7343 19.9481 14.1039 19.871C15.6949 19.794 17.1068 19.431 18.2701 18.2677C19.436 17.1019 19.7964 15.6924 19.8735 14.1015C19.953 12.7318 19.9381 11.3721 19.9381 9.99994ZM9.9999 15.0983C7.17852 15.0983 4.90153 12.8213 4.90153 9.99994C4.90153 7.17856 7.17852 4.90157 9.9999 4.90157C12.8213 4.90157 15.0983 7.17856 15.0983 9.99994C15.0983 12.8213 12.8213 15.0983 9.9999 15.0983ZM15.3071 5.88346C14.6483 5.88346 14.1164 5.3515 14.1164 4.69277C14.1164 4.03403 14.6483 3.50207 15.3071 3.50207C15.9658 3.50207 16.4978 4.03403 16.4978 4.69277C16.498 4.84919 16.4673 5.00411 16.4075 5.14866C16.3478 5.29321 16.2601 5.42455 16.1495 5.53515C16.0389 5.64576 15.9075 5.73346 15.763 5.79323C15.6184 5.853 15.4635 5.88366 15.3071 5.88346Z" fill="white"/>
</svg>
