<svg width="139" height="50" viewBox="0 0 139 50" fill="none" xmlns="http://www.w3.org/2000/svg">
<path d="M136.777 23.2583C134.912 23.6119 133.208 23.8852 131.569 24.0781C130.218 24.2388 128.868 24.3674 127.518 24.4317C127.357 23.8852 126.955 23.403 126.393 23.1779C125.493 22.8082 124.512 22.8886 124.142 22.9368C123.387 23.0333 122.374 23.4673 121.747 24.3835C121.313 25.0264 121.169 25.7819 121.345 26.5213C121.41 26.8107 121.522 27.0679 121.683 27.2929C121.345 27.743 121.024 28.1609 120.686 28.5788C120.204 29.1736 119.545 30.0094 118.886 30.4113C118.741 30.0255 118.597 29.5111 118.532 28.9968C118.323 27.6626 118.323 26.7464 118.323 25.2193V24.7371C118.323 21.892 119.69 18.211 121.731 15.5588C122.374 14.7229 122.229 13.5013 121.378 12.8583C120.526 12.2153 119.32 12.36 118.677 13.2119C116.764 15.6874 115.35 18.854 114.771 21.8277C114.257 22.5189 113.742 23.2583 113.196 24.0459C111.267 26.8428 109.097 30.0255 106.364 30.6203C106.091 30.6845 105.721 30.7167 105.528 30.5881C104.805 30.0416 104.596 27.5822 104.484 26.2481C104.468 26.023 104.451 25.8141 104.435 25.6212C104.339 24.6246 104.291 23.6762 104.259 22.76C104.339 22.7118 104.403 22.6635 104.468 22.5992C110.27 17.7127 113.758 12.1671 114.546 6.54116C114.996 3.3424 113.855 1.75106 112.81 0.979502C111.781 0.207943 110.592 -0.0653179 109.37 0.175794C106.863 0.658019 105.159 3.22988 104.693 4.00144C102.828 7.13591 101.944 10.5436 101.43 12.8262C100.706 16.1214 100.369 19.0147 100.401 22.1331C99.9668 22.7278 99.5167 23.3708 99.0666 24.0459C97.1377 26.8428 94.9677 30.0255 92.2351 30.6203C91.9618 30.6845 91.5921 30.7167 91.3992 30.5881C90.6759 30.0416 90.4669 27.5822 90.3544 26.2481C90.3383 26.023 90.3223 25.8141 90.3062 25.6212C90.2097 24.6246 90.1615 23.6762 90.1294 22.76C90.2097 22.7118 90.274 22.6635 90.3383 22.5992C96.1411 17.7127 99.6292 12.1671 100.417 6.54116C100.867 3.3424 99.7257 1.75106 98.6808 0.979502C97.6521 0.207943 96.4626 -0.0653179 95.241 0.175794C92.7173 0.658019 91.0135 3.22988 90.5473 4.00144C88.6827 7.13591 87.7986 10.5436 87.2842 12.8262C86.4805 16.4268 86.1591 19.5452 86.2716 23.0172C85.1625 24.6085 83.989 26.1516 82.7513 27.6144C82.0119 28.4824 81.4172 29.1254 80.8385 29.6719L80.7099 29.8005C80.5492 29.9612 80.2598 30.2345 80.0187 30.4274C79.9866 30.347 79.9544 30.2666 79.9223 30.1863C79.6812 29.5433 79.5365 28.8199 79.5044 28.0323C79.4722 27.1322 79.6008 26.1838 79.7455 25.1711C79.7937 24.8818 79.8258 24.5924 79.8741 24.3031C79.9223 23.9816 79.9544 23.6601 79.9705 23.3387C80.0669 22.969 80.1473 22.5992 80.2277 22.2456C80.3402 21.6991 80.4527 21.1847 80.6135 20.7025C80.951 19.6577 81.2564 18.6772 81.7226 17.8091C82.1244 17.0537 82.6388 16.3785 83.2496 15.7838C84.0212 15.0444 84.0373 13.8228 83.3139 13.0512C82.5745 12.2796 81.3529 12.2636 80.5813 12.9869C79.7294 13.8067 79.0061 14.739 78.4435 15.7517C78.3952 15.6874 78.347 15.6391 78.2988 15.5909C77.0129 14.1121 74.9232 13.3405 72.8497 13.5816C71.0815 13.7745 69.3776 14.6747 68.0435 16.0892C66.9665 17.2305 66.1467 18.6932 65.5841 20.4453C65.2948 21.3455 65.0858 22.3099 64.9412 23.3387C64.684 23.4994 64.475 23.7084 64.2982 23.9816C63.6392 25.0907 61.4048 27.8876 60.36 29.0611C60.0385 29.4147 59.4599 30.0577 58.9133 30.4113C58.7687 30.0416 58.6401 29.5111 58.5597 28.9968C58.3508 27.6626 58.3508 26.7464 58.3508 25.2193V24.7371C58.3508 21.892 59.7171 18.211 61.7585 15.5588C62.4014 14.7229 62.2568 13.5013 61.4048 12.8583C60.5529 12.2153 59.3474 12.36 58.7044 13.2119C56.4862 16.0731 54.9591 19.8506 54.5894 23.2101C54.2518 23.3547 53.9625 23.5798 53.7375 23.9013C52.7569 25.364 51.6478 26.8107 50.394 28.3056C48.1597 30.9417 47.4364 30.7971 46.5845 30.2505C46.054 29.913 45.2985 29.2057 45.0735 27.0196C44.9931 26.2642 44.9931 25.4926 45.0735 24.7371C45.1699 24.4639 45.2182 24.1745 45.186 23.8852C45.3307 23.0333 45.5557 22.1974 45.8772 21.4258C45.9415 21.2812 46.0058 21.1204 46.0701 20.9758C46.6809 19.6416 47.4525 18.6932 48.2562 18.211C48.642 17.986 49.1563 17.8734 49.4778 17.9699C49.6225 18.002 49.6868 18.0663 49.735 18.1628C50.2655 19.079 51.4389 19.4005 52.3712 18.87C53.2874 18.3396 53.6089 17.1662 53.0784 16.2339C52.4998 15.2212 51.5996 14.53 50.4583 14.2407C49.1403 13.8871 47.5811 14.1442 46.2951 14.8997C44.7842 15.7838 43.5304 17.2948 42.5659 19.3523C42.4695 19.5612 42.3891 19.7541 42.2927 19.9631C41.9873 20.7025 41.7461 21.458 41.5693 22.2135C41.4086 22.1974 41.2639 22.1974 41.1193 22.1652C41.1032 21.2812 40.9907 20.4292 40.7817 19.6095C40.2995 17.7127 39.335 16.1374 37.9687 15.0605L37.9526 15.0444C37.9366 15.0283 37.9205 15.0283 37.9044 15.0122C37.8723 14.9962 37.8562 14.9801 37.8241 14.964C37.8241 14.964 37.808 14.964 37.808 14.9479C36.3292 13.8388 34.4003 13.3566 32.3588 13.5816C29.7548 13.8549 27.4723 15.2212 25.7684 17.5359C24.3861 19.4166 23.4538 21.8277 23.1644 24.3353C22.8912 26.6339 22.9876 29.8487 24.9486 32.1473C26.3953 33.8512 28.5814 34.5745 30.7032 34.5745C31.8605 34.5745 32.9857 34.3655 33.9663 33.9798C37.4704 32.6295 39.7208 29.4468 40.637 25.9909C40.7978 26.007 40.9585 26.023 41.1193 26.0391C41.1193 26.5053 41.1514 26.9553 41.1996 27.4054C41.489 30.2666 42.5981 32.3241 44.4948 33.4975C45.4593 34.0923 46.4559 34.3977 47.4525 34.3977C48.3044 34.3977 49.1403 34.1726 49.96 33.7386C51.2781 33.0475 52.339 31.8901 53.3035 30.7649C53.7696 30.2023 54.2197 29.6558 54.6537 29.1093C54.6698 29.254 54.6858 29.3986 54.718 29.5433C55.2002 32.6777 56.5183 34.462 58.3668 34.462C58.4472 34.462 58.5115 34.462 58.5919 34.4459C60.8101 34.2852 62.3693 32.5331 63.2052 31.6008C63.6392 31.1186 64.3143 30.2988 65.0215 29.4147C65.1341 29.8969 65.2948 30.3791 65.5198 30.8614C66.3878 32.7742 68.0113 34.0923 69.8599 34.3816C71.6602 34.6709 73.6212 33.9476 75.2286 32.4045C75.5823 32.0669 75.9037 31.7294 76.1931 31.3597C76.2092 31.424 76.2413 31.4561 76.2574 31.5043C76.5628 32.292 77.3665 34.4138 79.6812 34.4138C79.6972 34.4138 79.6972 34.4138 79.7133 34.4138C81.3529 34.4138 82.5424 33.2886 83.33 32.517L83.4425 32.4045C84.1176 31.7615 84.7928 31.0382 85.6286 30.0577C85.9822 29.6397 86.3359 29.2218 86.6734 28.7878C86.9467 30.6203 87.5254 32.517 89.0203 33.6261C89.5828 34.0441 90.4669 34.4781 91.7046 34.4781C92.0904 34.4781 92.5084 34.4298 92.9745 34.3334C96.3501 33.61 98.7773 30.9096 100.738 28.2252C100.979 30.2345 101.51 32.4045 103.166 33.6261C103.728 34.0441 104.612 34.4781 105.85 34.4781C106.236 34.4781 106.654 34.4298 107.12 34.3334C110.302 33.6422 112.649 31.215 114.546 28.6753C114.578 28.9485 114.61 29.2218 114.659 29.5272C115.141 32.6617 116.459 34.4459 118.307 34.4459C118.388 34.4459 118.452 34.4459 118.532 34.4298C121.024 34.2369 122.599 32.2598 123.644 30.9417C124.255 30.1702 124.866 29.3665 125.509 28.4824C125.541 28.4342 125.573 28.3859 125.621 28.3377C126.168 28.3216 126.698 28.3056 127.229 28.2734C128.804 28.1931 130.395 28.0645 131.97 27.8716C133.706 27.6626 135.491 27.3733 137.436 27.0036C138.48 26.8107 139.172 25.798 138.963 24.7532C138.834 23.7405 137.821 23.0654 136.777 23.2583ZM105.191 13.662C105.914 10.3829 106.782 8.01998 108.004 5.97857C108.631 4.93375 109.547 4.06574 110.142 3.93715C110.174 3.93715 110.206 3.92107 110.238 3.92107C110.302 3.92107 110.399 3.93715 110.527 4.04967C110.736 4.21041 110.897 4.88552 110.753 5.97857C110.11 10.4954 107.393 14.3532 104.564 17.2626C104.709 16.1053 104.918 14.9158 105.191 13.662ZM91.0456 13.662C91.7689 10.3829 92.6369 8.01998 93.8586 5.97857C94.4855 4.93375 95.4017 4.06574 95.9964 3.93715C96.0286 3.93715 96.0607 3.92107 96.0929 3.92107C96.1572 3.92107 96.2536 3.93715 96.3822 4.04967C96.5912 4.21041 96.7519 4.88552 96.6073 5.97857C95.9643 10.4954 93.2478 14.3532 90.4187 17.2626C90.5634 16.1053 90.7723 14.9158 91.0456 13.662ZM32.616 30.3631C31.1211 30.9417 28.9511 30.8292 27.9224 29.6237C26.7972 28.3056 26.8775 26.007 27.0222 24.7532C27.408 21.458 29.3851 17.7609 32.7928 17.3912C33.468 17.3108 34.1109 17.3912 34.6735 17.5841C34.5771 19.2558 34.7539 22.0045 36.5863 23.9816C36.7471 24.1424 36.9078 24.3031 37.0686 24.4478C36.5381 27.0036 34.9789 29.4468 32.616 30.3631ZM76.1449 22.6957C76.1127 22.7761 76.0966 22.8725 76.0645 22.9529C76.0323 23.0332 76.0163 23.1297 75.9841 23.2101C75.2126 25.6212 74.2642 28.0645 72.6085 29.6397C71.8852 30.3309 71.0815 30.7006 70.5028 30.6042C69.9724 30.5238 69.3937 29.9934 69.0722 29.3022C68.6543 28.3859 68.6061 27.1965 68.6061 26.2802C68.6061 24.496 68.8311 22.969 69.249 21.6187C69.6348 20.4292 70.1653 19.4487 70.8404 18.7414C71.5316 18.002 72.4156 17.5198 73.2676 17.4234C73.364 17.4073 73.4765 17.4073 73.573 17.4073C74.2803 17.4073 74.9714 17.6806 75.3733 18.1467C75.8716 18.7093 76.0484 19.5934 76.0966 20.2524C76.1931 21.0561 76.1931 21.892 76.1449 22.6957Z" fill="white"/>
<path d="M136.777 23.2583C134.912 23.6119 133.208 23.8852 131.569 24.0781C130.218 24.2388 128.868 24.3674 127.518 24.4317C127.357 23.8852 126.955 23.403 126.393 23.1779C125.493 22.8082 124.512 22.8886 124.142 22.9368C123.387 23.0333 122.374 23.4673 121.747 24.3835C121.313 25.0264 121.169 25.7819 121.345 26.5213C121.41 26.8107 121.522 27.0679 121.683 27.2929C121.345 27.743 121.024 28.1609 120.686 28.5788C120.204 29.1736 119.545 30.0094 118.886 30.4113C118.741 30.0255 118.597 29.5111 118.532 28.9968C118.323 27.6626 118.323 26.7464 118.323 25.2193V24.7371C118.323 21.892 119.69 18.211 121.731 15.5588C122.374 14.7229 122.229 13.5013 121.378 12.8583C120.526 12.2153 119.32 12.36 118.677 13.2119C116.764 15.6874 115.35 18.854 114.771 21.8277C114.257 22.5189 113.742 23.2583 113.196 24.0459C111.267 26.8428 109.097 30.0255 106.364 30.6203C106.091 30.6845 105.721 30.7167 105.528 30.5881C104.805 30.0416 104.596 27.5822 104.484 26.2481C104.468 26.023 104.451 25.8141 104.435 25.6212C104.339 24.6246 104.291 23.6762 104.259 22.76C104.339 22.7118 104.403 22.6635 104.468 22.5992C110.27 17.7127 113.758 12.1671 114.546 6.54116C114.996 3.3424 113.855 1.75106 112.81 0.979502C111.781 0.207943 110.592 -0.0653179 109.37 0.175794C106.863 0.658019 105.159 3.22988 104.693 4.00144C102.828 7.13591 101.944 10.5436 101.43 12.8262C100.706 16.1214 100.369 19.0147 100.401 22.1331C99.9668 22.7278 99.5167 23.3708 99.0666 24.0459C97.1377 26.8428 94.9677 30.0255 92.2351 30.6203C91.9618 30.6845 91.5921 30.7167 91.3992 30.5881C90.6759 30.0416 90.4669 27.5822 90.3544 26.2481C90.3383 26.023 90.3223 25.8141 90.3062 25.6212C90.2097 24.6246 90.1615 23.6762 90.1294 22.76C90.2097 22.7118 90.274 22.6635 90.3383 22.5992C96.1411 17.7127 99.6292 12.1671 100.417 6.54116C100.867 3.3424 99.7257 1.75106 98.6808 0.979502C97.6521 0.207943 96.4626 -0.0653179 95.241 0.175794C92.7173 0.658019 91.0135 3.22988 90.5473 4.00144C88.6827 7.13591 87.7986 10.5436 87.2842 12.8262C86.4805 16.4268 86.1591 19.5452 86.2716 23.0172C85.1625 24.6085 83.989 26.1516 82.7513 27.6144C82.0119 28.4824 81.4172 29.1254 80.8385 29.6719L80.7099 29.8005C80.5492 29.9612 80.2598 30.2345 80.0187 30.4274C79.9866 30.347 79.9544 30.2666 79.9223 30.1863C79.6812 29.5433 79.5365 28.8199 79.5044 28.0323C79.4722 27.1322 79.6008 26.1838 79.7455 25.1711C79.7937 24.8818 79.8258 24.5924 79.8741 24.3031C79.9223 23.9816 79.9544 23.6601 79.9705 23.3387C80.0669 22.969 80.1473 22.5992 80.2277 22.2456C80.3402 21.6991 80.4527 21.1847 80.6135 20.7025C80.951 19.6577 81.2564 18.6772 81.7226 17.8091C82.1244 17.0537 82.6388 16.3785 83.2496 15.7838C84.0212 15.0444 84.0373 13.8228 83.3139 13.0512C82.5745 12.2796 81.3529 12.2636 80.5813 12.9869C79.7294 13.8067 79.0061 14.739 78.4435 15.7517C78.3952 15.6874 78.347 15.6391 78.2988 15.5909C77.0129 14.1121 74.9232 13.3405 72.8497 13.5816C71.0815 13.7745 69.3776 14.6747 68.0435 16.0892C66.9665 17.2305 66.1467 18.6932 65.5841 20.4453C65.2948 21.3455 65.0858 22.3099 64.9412 23.3387C64.684 23.4994 64.475 23.7084 64.2982 23.9816C63.6392 25.0907 61.4048 27.8876 60.36 29.0611C60.0385 29.4147 59.4599 30.0577 58.9133 30.4113C58.7687 30.0416 58.6401 29.5111 58.5597 28.9968C58.3508 27.6626 58.3508 26.7464 58.3508 25.2193V24.7371C58.3508 21.892 59.7171 18.211 61.7585 15.5588C62.4014 14.7229 62.2568 13.5013 61.4048 12.8583C60.5529 12.2153 59.3474 12.36 58.7044 13.2119C56.4862 16.0731 54.9591 19.8506 54.5894 23.2101C54.2518 23.3547 53.9625 23.5798 53.7375 23.9013C52.7569 25.364 51.6478 26.8107 50.394 28.3056C48.1597 30.9417 47.4364 30.7971 46.5845 30.2505C46.054 29.913 45.2985 29.2057 45.0735 27.0196C44.9931 26.2642 44.9931 25.4926 45.0735 24.7371C45.1699 24.4639 45.2182 24.1745 45.186 23.8852C45.3307 23.0333 45.5557 22.1974 45.8772 21.4258C45.9415 21.2812 46.0058 21.1204 46.0701 20.9758C46.6809 19.6416 47.4525 18.6932 48.2562 18.211C48.642 17.986 49.1563 17.8734 49.4778 17.9699C49.6225 18.002 49.6868 18.0663 49.735 18.1628C50.2655 19.079 51.4389 19.4005 52.3712 18.87C53.2874 18.3396 53.6089 17.1662 53.0784 16.2339C52.4998 15.2212 51.5996 14.53 50.4583 14.2407C49.1403 13.8871 47.5811 14.1442 46.2951 14.8997C44.7842 15.7838 43.5304 17.2948 42.5659 19.3523C42.4695 19.5612 42.3891 19.7541 42.2927 19.9631C41.9873 20.7025 41.7461 21.458 41.5693 22.2135C41.4086 22.1974 41.2639 22.1974 41.1193 22.1652C41.1032 21.2812 40.9907 20.4292 40.7817 19.6095C40.2995 17.7127 39.335 16.1374 37.9687 15.0605L37.9526 15.0444C37.9366 15.0283 37.9205 15.0283 37.9044 15.0122C37.8723 14.9962 37.8562 14.9801 37.8241 14.964C37.8241 14.964 37.808 14.964 37.808 14.9479C36.3292 13.8388 34.4003 13.3566 32.3588 13.5816C29.7548 13.8549 27.4723 15.2212 25.7684 17.5359C24.3861 19.4166 23.4538 21.8277 23.1644 24.3353C22.8912 26.6339 22.9876 29.8487 24.9486 32.1473C26.3953 33.8512 28.5814 34.5745 30.7032 34.5745C31.8605 34.5745 32.9857 34.3655 33.9663 33.9798C37.4704 32.6295 39.7208 29.4468 40.637 25.9909C40.7978 26.007 40.9585 26.023 41.1193 26.0391C41.1193 26.5053 41.1514 26.9553 41.1996 27.4054C41.489 30.2666 42.5981 32.3241 44.4948 33.4975C45.4593 34.0923 46.4559 34.3977 47.4525 34.3977C48.3044 34.3977 49.1403 34.1726 49.96 33.7386C51.2781 33.0475 52.339 31.8901 53.3035 30.7649C53.7696 30.2023 54.2197 29.6558 54.6537 29.1093C54.6698 29.254 54.6858 29.3986 54.718 29.5433C55.2002 32.6777 56.5183 34.462 58.3668 34.462C58.4472 34.462 58.5115 34.462 58.5919 34.4459C60.8101 34.2852 62.3693 32.5331 63.2052 31.6008C63.6392 31.1186 64.3143 30.2988 65.0215 29.4147C65.1341 29.8969 65.2948 30.3791 65.5198 30.8614C66.3878 32.7742 68.0113 34.0923 69.8599 34.3816C71.6602 34.6709 73.6212 33.9476 75.2286 32.4045C75.5823 32.0669 75.9037 31.7294 76.1931 31.3597C76.2092 31.424 76.2413 31.4561 76.2574 31.5043C76.5628 32.292 77.3665 34.4138 79.6812 34.4138C79.6972 34.4138 79.6972 34.4138 79.7133 34.4138C81.3529 34.4138 82.5424 33.2886 83.33 32.517L83.4425 32.4045C84.1176 31.7615 84.7928 31.0382 85.6286 30.0577C85.9822 29.6397 86.3359 29.2218 86.6734 28.7878C86.9467 30.6203 87.5254 32.517 89.0203 33.6261C89.5828 34.0441 90.4669 34.4781 91.7046 34.4781C92.0904 34.4781 92.5084 34.4298 92.9745 34.3334C96.3501 33.61 98.7773 30.9096 100.738 28.2252C100.979 30.2345 101.51 32.4045 103.166 33.6261C103.728 34.0441 104.612 34.4781 105.85 34.4781C106.236 34.4781 106.654 34.4298 107.12 34.3334C110.302 33.6422 112.649 31.215 114.546 28.6753C114.578 28.9485 114.61 29.2218 114.659 29.5272C115.141 32.6617 116.459 34.4459 118.307 34.4459C118.388 34.4459 118.452 34.4459 118.532 34.4298C121.024 34.2369 122.599 32.2598 123.644 30.9417C124.255 30.1702 124.866 29.3665 125.509 28.4824C125.541 28.4342 125.573 28.3859 125.621 28.3377C126.168 28.3216 126.698 28.3056 127.229 28.2734C128.804 28.1931 130.395 28.0645 131.97 27.8716C133.706 27.6626 135.491 27.3733 137.436 27.0036C138.48 26.8107 139.172 25.798 138.963 24.7532C138.834 23.7405 137.821 23.0654 136.777 23.2583ZM105.191 13.662C105.914 10.3829 106.782 8.01998 108.004 5.97857C108.631 4.93375 109.547 4.06574 110.142 3.93715C110.174 3.93715 110.206 3.92107 110.238 3.92107C110.302 3.92107 110.399 3.93715 110.527 4.04967C110.736 4.21041 110.897 4.88552 110.753 5.97857C110.11 10.4954 107.393 14.3532 104.564 17.2626C104.709 16.1053 104.918 14.9158 105.191 13.662ZM91.0456 13.662C91.7689 10.3829 92.6369 8.01998 93.8586 5.97857C94.4855 4.93375 95.4017 4.06574 95.9964 3.93715C96.0286 3.93715 96.0607 3.92107 96.0929 3.92107C96.1572 3.92107 96.2536 3.93715 96.3822 4.04967C96.5912 4.21041 96.7519 4.88552 96.6073 5.97857C95.9643 10.4954 93.2478 14.3532 90.4187 17.2626C90.5634 16.1053 90.7723 14.9158 91.0456 13.662ZM32.616 30.3631C31.1211 30.9417 28.9511 30.8292 27.9224 29.6237C26.7972 28.3056 26.8775 26.007 27.0222 24.7532C27.408 21.458 29.3851 17.7609 32.7928 17.3912C33.468 17.3108 34.1109 17.3912 34.6735 17.5841C34.5771 19.2558 34.7539 22.0045 36.5863 23.9816C36.7471 24.1424 36.9078 24.3031 37.0686 24.4478C36.5381 27.0036 34.9789 29.4468 32.616 30.3631ZM76.1449 22.6957C76.1127 22.7761 76.0966 22.8725 76.0645 22.9529C76.0323 23.0332 76.0163 23.1297 75.9841 23.2101C75.2126 25.6212 74.2642 28.0645 72.6085 29.6397C71.8852 30.3309 71.0815 30.7006 70.5028 30.6042C69.9724 30.5238 69.3937 29.9934 69.0722 29.3022C68.6543 28.3859 68.6061 27.1965 68.6061 26.2802C68.6061 24.496 68.8311 22.969 69.249 21.6187C69.6348 20.4292 70.1653 19.4487 70.8404 18.7414C71.5316 18.002 72.4156 17.5198 73.2676 17.4234C73.364 17.4073 73.4765 17.4073 73.573 17.4073C74.2803 17.4073 74.9714 17.6806 75.3733 18.1467C75.8716 18.7093 76.0484 19.5934 76.0966 20.2524C76.1931 21.0561 76.1931 21.892 76.1449 22.6957Z" fill="white"/>
<path d="M62.5303 10.2221C62.7714 10.3186 63.0125 10.3668 63.2536 10.3668C64.0252 10.3668 64.7324 9.9167 65.0378 9.16122C65.3111 8.47003 65.1664 7.71454 64.7164 7.18409C64.5878 6.4929 64.0734 5.89816 63.334 5.70527C62.3052 5.41594 61.2443 6.02675 60.955 7.03943C60.6496 8.18069 61.0836 9.64344 62.5303 10.2221Z" fill="white"/>
<path d="M62.5303 10.2221C62.7714 10.3186 63.0125 10.3668 63.2536 10.3668C64.0252 10.3668 64.7324 9.9167 65.0378 9.16122C65.3111 8.47003 65.1664 7.71454 64.7164 7.18409C64.5878 6.4929 64.0734 5.89816 63.334 5.70527C62.3052 5.41594 61.2443 6.02675 60.955 7.03943C60.6496 8.18069 61.0836 9.64344 62.5303 10.2221Z" fill="white"/>
<path d="M122.487 10.2221C122.728 10.3186 122.969 10.3668 123.21 10.3668C123.982 10.3668 124.689 9.9167 124.994 9.16122C125.267 8.47003 125.123 7.71454 124.673 7.18409C124.544 6.4929 124.03 5.89816 123.29 5.70527C122.262 5.41594 121.201 6.02675 120.911 7.03943C120.606 8.18069 121.04 9.64344 122.487 10.2221Z" fill="white"/>
<path d="M122.487 10.2221C122.728 10.3186 122.969 10.3668 123.21 10.3668C123.982 10.3668 124.689 9.9167 124.994 9.16122C125.267 8.47003 125.123 7.71454 124.673 7.18409C124.544 6.4929 124.03 5.89816 123.29 5.70527C122.262 5.41594 121.201 6.02675 120.911 7.03943C120.606 8.18069 121.04 9.64344 122.487 10.2221Z" fill="#E9168C"/>
<path d="M25.3346 10.608C26.8938 9.37028 27.6171 7.16812 27.1027 5.12671C26.4919 2.68343 24.4987 0.915275 21.6375 0.256235C18.2619 -0.515325 14.6131 0.497347 12.7646 2.73166C10.4499 5.52856 10.4338 9.5471 12.7485 14.3693C13.2629 15.4463 13.8255 16.4911 14.372 17.5038C15.5776 19.7381 16.7188 21.8438 17.2814 24.1907C18.1494 27.8073 17.7958 31.3115 16.2687 34.3174C15.1918 36.4231 13.6165 37.9662 11.8323 38.6574C10.0159 39.3647 8.00662 39.3004 6.44743 38.4806C5.56335 38.0144 4.42209 37.0821 4.00416 35.2818C3.57016 33.369 4.29349 31.0222 5.91698 29.1576C6.62425 28.3539 6.5278 27.1322 5.72409 26.441C4.92038 25.7338 3.69875 25.8302 3.00756 26.6339C0.53214 29.4469 -0.496607 32.9993 0.226731 36.1498C0.8054 38.6735 2.36459 40.7149 4.63105 41.9044C6.0295 42.6438 7.63692 43.0135 9.27648 43.0135C10.6106 43.0135 11.9609 42.7724 13.2307 42.258C15.899 41.2132 18.1976 39.011 19.6925 36.0695C21.6214 32.292 22.0876 27.7591 21.0267 23.2905C20.3516 20.4454 19.0335 18.0182 17.7636 15.6714C17.2493 14.7069 16.7027 13.7103 16.2366 12.7137C15.3204 10.7848 14.0344 7.2485 15.7383 5.191C16.6545 4.09796 18.8728 3.58359 20.7856 4.01759C21.6054 4.21048 23.036 4.70878 23.3735 6.05901C23.5182 6.6216 23.3253 7.28064 22.9556 7.56998C22.1197 8.22902 21.9911 9.45065 22.6502 10.2865C23.2931 11.1384 24.4987 11.2831 25.3346 10.608Z" fill="white"/>
<path d="M25.3346 10.608C26.8938 9.37028 27.6171 7.16812 27.1027 5.12671C26.4919 2.68343 24.4987 0.915275 21.6375 0.256235C18.2619 -0.515325 14.6131 0.497347 12.7646 2.73166C10.4499 5.52856 10.4338 9.5471 12.7485 14.3693C13.2629 15.4463 13.8255 16.4911 14.372 17.5038C15.5776 19.7381 16.7188 21.8438 17.2814 24.1907C18.1494 27.8073 17.7958 31.3115 16.2687 34.3174C15.1918 36.4231 13.6165 37.9662 11.8323 38.6574C10.0159 39.3647 8.00662 39.3004 6.44743 38.4806C5.56335 38.0144 4.42209 37.0821 4.00416 35.2818C3.57016 33.369 4.29349 31.0222 5.91698 29.1576C6.62425 28.3539 6.5278 27.1322 5.72409 26.441C4.92038 25.7338 3.69875 25.8302 3.00756 26.6339C0.53214 29.4469 -0.496607 32.9993 0.226731 36.1498C0.8054 38.6735 2.36459 40.7149 4.63105 41.9044C6.0295 42.6438 7.63692 43.0135 9.27648 43.0135C10.6106 43.0135 11.9609 42.7724 13.2307 42.258C15.899 41.2132 18.1976 39.011 19.6925 36.0695C21.6214 32.292 22.0876 27.7591 21.0267 23.2905C20.3516 20.4454 19.0335 18.0182 17.7636 15.6714C17.2493 14.7069 16.7027 13.7103 16.2366 12.7137C15.3204 10.7848 14.0344 7.2485 15.7383 5.191C16.6545 4.09796 18.8728 3.58359 20.7856 4.01759C21.6054 4.21048 23.036 4.70878 23.3735 6.05901C23.5182 6.6216 23.3253 7.28064 22.9556 7.56998C22.1197 8.22902 21.9911 9.45065 22.6502 10.2865C23.2931 11.1384 24.4987 11.2831 25.3346 10.608Z" fill="white"/>
<path d="M85.775 44.8115L84.179 41.7635H84.167V44.8115H81.503V36.3155H85.463C86.151 36.3155 86.739 36.4395 87.227 36.6875C87.715 36.9275 88.079 37.2595 88.319 37.6835C88.567 38.0995 88.691 38.5715 88.691 39.0995C88.691 39.6675 88.531 40.1715 88.211 40.6115C87.899 41.0515 87.447 41.3675 86.855 41.5595L88.703 44.8115H85.775ZM84.167 39.9875H85.223C85.479 39.9875 85.671 39.9315 85.799 39.8195C85.927 39.6995 85.991 39.5155 85.991 39.2675C85.991 39.0435 85.923 38.8675 85.787 38.7395C85.659 38.6115 85.471 38.5475 85.223 38.5475H84.167V39.9875ZM92.206 38.4395V39.4835H94.846V41.4875H92.206V42.6875H95.206V44.8115H89.542V36.3155H95.206V38.4395H92.206ZM95.97 40.5515C95.97 39.7115 96.138 38.9635 96.474 38.3075C96.818 37.6515 97.306 37.1435 97.938 36.7835C98.57 36.4155 99.314 36.2315 100.17 36.2315C100.906 36.2315 101.562 36.3715 102.138 36.6515C102.722 36.9235 103.194 37.3115 103.554 37.8155C103.922 38.3195 104.166 38.9075 104.286 39.5795H101.478C101.35 39.2995 101.166 39.0835 100.926 38.9315C100.694 38.7715 100.426 38.6915 100.122 38.6915C99.674 38.6915 99.318 38.8595 99.054 39.1955C98.798 39.5315 98.67 39.9835 98.67 40.5515C98.67 41.1195 98.798 41.5715 99.054 41.9075C99.318 42.2435 99.674 42.4115 100.122 42.4115C100.426 42.4115 100.694 42.3355 100.926 42.1835C101.166 42.0235 101.35 41.8035 101.478 41.5235H104.286C104.166 42.1955 103.922 42.7835 103.554 43.2875C103.194 43.7915 102.722 44.1835 102.138 44.4635C101.562 44.7355 100.906 44.8715 100.17 44.8715C99.314 44.8715 98.57 44.6915 97.938 44.3315C97.306 43.9635 96.818 43.4515 96.474 42.7955C96.138 42.1395 95.97 41.3915 95.97 40.5515ZM109.385 44.8955C108.585 44.8955 107.849 44.7075 107.177 44.3315C106.513 43.9555 105.985 43.4355 105.593 42.7715C105.201 42.1075 105.005 41.3595 105.005 40.5275C105.005 39.6955 105.201 38.9475 105.593 38.2835C105.985 37.6195 106.513 37.1035 107.177 36.7355C107.849 36.3595 108.585 36.1715 109.385 36.1715C110.185 36.1715 110.917 36.3595 111.581 36.7355C112.245 37.1035 112.769 37.6195 113.153 38.2835C113.545 38.9475 113.741 39.6955 113.741 40.5275C113.741 41.3595 113.545 42.1075 113.153 42.7715C112.769 43.4355 112.241 43.9555 111.569 44.3315C110.905 44.7075 110.177 44.8955 109.385 44.8955ZM109.385 42.4115C109.913 42.4115 110.321 42.2435 110.609 41.9075C110.897 41.5635 111.041 41.1035 111.041 40.5275C111.041 39.9435 110.897 39.4835 110.609 39.1475C110.321 38.8035 109.913 38.6315 109.385 38.6315C108.849 38.6315 108.437 38.8035 108.149 39.1475C107.861 39.4835 107.717 39.9435 107.717 40.5275C107.717 41.1035 107.861 41.5635 108.149 41.9075C108.437 42.2435 108.849 42.4115 109.385 42.4115ZM118.974 44.8115L117.378 41.7635H117.366V44.8115H114.702V36.3155H118.662C119.35 36.3155 119.938 36.4395 120.426 36.6875C120.914 36.9275 121.278 37.2595 121.518 37.6835C121.766 38.0995 121.89 38.5715 121.89 39.0995C121.89 39.6675 121.73 40.1715 121.41 40.6115C121.098 41.0515 120.646 41.3675 120.054 41.5595L121.902 44.8115H118.974ZM117.366 39.9875H118.422C118.678 39.9875 118.87 39.9315 118.998 39.8195C119.126 39.6995 119.19 39.5155 119.19 39.2675C119.19 39.0435 119.122 38.8675 118.986 38.7395C118.858 38.6115 118.67 38.5475 118.422 38.5475H117.366V39.9875ZM126.281 36.3155C127.169 36.3155 127.945 36.4955 128.609 36.8555C129.281 37.2155 129.797 37.7155 130.157 38.3555C130.517 38.9955 130.697 39.7235 130.697 40.5395C130.697 41.3475 130.517 42.0755 130.157 42.7235C129.797 43.3715 129.281 43.8835 128.609 44.2595C127.945 44.6275 127.169 44.8115 126.281 44.8115H122.741V36.3155H126.281ZM126.041 42.4355C126.641 42.4355 127.117 42.2715 127.469 41.9435C127.821 41.6155 127.997 41.1475 127.997 40.5395C127.997 39.9315 127.821 39.4635 127.469 39.1355C127.117 38.8075 126.641 38.6435 126.041 38.6435H125.405V42.4355H126.041ZM134.983 44.8955C133.967 44.8955 133.127 44.6595 132.463 44.1875C131.807 43.7075 131.451 43.0075 131.395 42.0875H134.227C134.267 42.5755 134.483 42.8195 134.875 42.8195C135.019 42.8195 135.139 42.7875 135.235 42.7235C135.339 42.6515 135.391 42.5435 135.391 42.3995C135.391 42.1995 135.283 42.0395 135.067 41.9195C134.851 41.7915 134.515 41.6475 134.059 41.4875C133.515 41.2955 133.063 41.1075 132.703 40.9235C132.351 40.7395 132.047 40.4715 131.791 40.1195C131.535 39.7675 131.411 39.3155 131.419 38.7635C131.419 38.2115 131.559 37.7435 131.839 37.3595C132.127 36.9675 132.515 36.6715 133.003 36.4715C133.499 36.2715 134.055 36.1715 134.671 36.1715C135.711 36.1715 136.535 36.4115 137.143 36.8915C137.759 37.3715 138.083 38.0475 138.115 38.9195H135.247C135.239 38.6795 135.179 38.5075 135.067 38.4035C134.955 38.2995 134.819 38.2475 134.659 38.2475C134.547 38.2475 134.455 38.2875 134.383 38.3675C134.311 38.4395 134.275 38.5435 134.275 38.6795C134.275 38.8715 134.379 39.0315 134.587 39.1595C134.803 39.2795 135.143 39.4275 135.607 39.6035C136.143 39.8035 136.583 39.9955 136.927 40.1795C137.279 40.3635 137.583 40.6195 137.839 40.9475C138.095 41.2755 138.223 41.6875 138.223 42.1835C138.223 42.7035 138.095 43.1715 137.839 43.5875C137.583 43.9955 137.211 44.3155 136.723 44.5475C136.235 44.7795 135.655 44.8955 134.983 44.8955Z" fill="white"/>
</svg>
