<svg width="36" height="20" viewBox="0 0 36 20" fill="none" xmlns="http://www.w3.org/2000/svg">
<g clip-path="url(#clip0_28_4489)">
<path d="M15.5226 11.2388L15.3165 3.72331C15.3165 3.48966 15.1242 3.31104 14.9044 3.31104C14.6708 3.31104 14.4922 3.48966 14.4922 3.72331L14.2998 11.2388L14.4922 14.8521C14.4922 15.0858 14.6845 15.2644 14.9044 15.2644C15.1379 15.2644 15.3165 15.0858 15.3165 14.8521L15.5226 11.2388Z" fill="url(#paint0_linear_28_4489)"/>
<path d="M15.5226 11.2388L15.3165 3.72331C15.3165 3.48966 15.1242 3.31104 14.9044 3.31104C14.6708 3.31104 14.4922 3.48966 14.4922 3.72331L14.2998 11.2388L14.4922 14.8521C14.4922 15.0858 14.6845 15.2644 14.9044 15.2644C15.1379 15.2644 15.3165 15.0858 15.3165 14.8521L15.5226 11.2388Z" fill="white"/>
<path d="M14.039 11.239L13.8055 3.43485C13.8056 3.38431 13.7957 3.33426 13.7764 3.28757C13.7571 3.24087 13.7287 3.19844 13.693 3.16272C13.6573 3.12699 13.6148 3.09867 13.5681 3.07938C13.5214 3.06009 13.4714 3.0502 13.4208 3.05029C13.3703 3.05018 13.3202 3.06006 13.2735 3.07935C13.2267 3.09864 13.1843 3.12697 13.1485 3.16272C13.1128 3.19846 13.0844 3.24091 13.0651 3.28763C13.0458 3.33435 13.0359 3.38443 13.036 3.43498L12.8301 11.2253L13.0361 14.8662C13.036 14.9167 13.0459 14.9668 13.0652 15.0135C13.0845 15.0602 13.1128 15.1027 13.1486 15.1385C13.1843 15.1742 13.2268 15.2026 13.2735 15.2219C13.3202 15.2412 13.3703 15.2511 13.4208 15.251C13.4714 15.2511 13.5215 15.2412 13.5682 15.2219C13.615 15.2026 13.6574 15.1743 13.6932 15.1385C13.729 15.1028 13.7573 15.0603 13.7766 15.0136C13.7959 14.9668 13.8058 14.9167 13.8057 14.8662L14.039 11.239Z" fill="url(#paint1_linear_28_4489)"/>
<path d="M14.039 11.239L13.8055 3.43485C13.8056 3.38431 13.7957 3.33426 13.7764 3.28757C13.7571 3.24087 13.7287 3.19844 13.693 3.16272C13.6573 3.12699 13.6148 3.09867 13.5681 3.07938C13.5214 3.06009 13.4714 3.0502 13.4208 3.05029C13.3703 3.05018 13.3202 3.06006 13.2735 3.07935C13.2267 3.09864 13.1843 3.12697 13.1485 3.16272C13.1128 3.19846 13.0844 3.24091 13.0651 3.28763C13.0458 3.33435 13.0359 3.38443 13.036 3.43498L12.8301 11.2253L13.0361 14.8662C13.036 14.9167 13.0459 14.9668 13.0652 15.0135C13.0845 15.0602 13.1128 15.1027 13.1486 15.1385C13.1843 15.1742 13.2268 15.2026 13.2735 15.2219C13.3202 15.2412 13.3703 15.2511 13.4208 15.251C13.4714 15.2511 13.5215 15.2412 13.5682 15.2219C13.615 15.2026 13.6574 15.1743 13.6932 15.1385C13.729 15.1028 13.7573 15.0603 13.7766 15.0136C13.7959 14.9668 13.8058 14.9167 13.8057 14.8662L14.039 11.239Z" fill="white"/>
<path d="M10.8379 3.48981C10.8241 3.31119 10.6868 3.16016 10.5083 3.16016C10.3297 3.16016 10.1921 3.29754 10.1785 3.48981L9.94482 11.2251L10.1785 14.921C10.1785 15.0996 10.3297 15.237 10.5081 15.237C10.6868 15.237 10.8243 15.0996 10.8379 14.9073L11.1127 11.2113L10.8379 3.48995V3.48981Z" fill="url(#paint2_linear_28_4489)"/>
<path d="M10.8379 3.48981C10.8241 3.31119 10.6868 3.16016 10.5083 3.16016C10.3297 3.16016 10.1921 3.29754 10.1785 3.48981L9.94482 11.2251L10.1785 14.921C10.1785 15.0996 10.3297 15.237 10.5081 15.237C10.6868 15.237 10.8243 15.0996 10.8379 14.9073L11.1127 11.2113L10.8379 3.48995V3.48981Z" fill="white"/>
<path d="M12.3214 3.22883C12.3214 3.03642 12.1566 2.87159 11.9642 2.87159C11.9172 2.87126 11.8706 2.88028 11.8271 2.89811C11.7836 2.91595 11.7441 2.94225 11.7108 2.97549C11.6776 3.00873 11.6513 3.04824 11.6335 3.09173C11.6156 3.13522 11.6066 3.18183 11.6069 3.22883L11.3872 11.2251L11.6069 14.8935C11.6069 15.0859 11.7719 15.2508 11.9642 15.2508C12.1566 15.2508 12.3076 15.0996 12.3214 14.8935L12.5687 11.2251L12.3214 3.22883Z" fill="url(#paint3_linear_28_4489)"/>
<path d="M12.3214 3.22883C12.3214 3.03642 12.1566 2.87159 11.9642 2.87159C11.9172 2.87126 11.8706 2.88028 11.8271 2.89811C11.7836 2.91595 11.7441 2.94225 11.7108 2.97549C11.6776 3.00873 11.6513 3.04824 11.6335 3.09173C11.6156 3.13522 11.6066 3.18183 11.6069 3.22883L11.3872 11.2251L11.6069 14.8935C11.6069 15.0859 11.7719 15.2508 11.9642 15.2508C12.1566 15.2508 12.3076 15.0996 12.3214 14.8935L12.5687 11.2251L12.3214 3.22883Z" fill="white"/>
<path d="M4.83359 15.1544C4.94352 15.1544 5.026 15.072 5.03966 14.9484L5.3969 11.225L5.03966 7.37808C5.02587 7.26801 4.94352 7.17188 4.83359 7.17188C4.72366 7.17188 4.64132 7.25436 4.62752 7.37794L4.31152 11.225L4.62752 14.9484C4.62752 15.072 4.72366 15.1545 4.83359 15.1545V15.1544Z" fill="url(#paint4_linear_28_4489)"/>
<path d="M4.83359 15.1544C4.94352 15.1544 5.026 15.072 5.03966 14.9484L5.3969 11.225L5.03966 7.37808C5.02587 7.26801 4.94352 7.17188 4.83359 7.17188C4.72366 7.17188 4.64132 7.25436 4.62752 7.37794L4.31152 11.225L4.62752 14.9484C4.62752 15.072 4.72366 15.1545 4.83359 15.1545V15.1544Z" fill="white"/>
<path d="M17.0203 11.2391L16.8279 2.3085C16.8279 2.15733 16.7456 2.01995 16.6219 1.93746C16.5532 1.89622 16.4708 1.85498 16.3746 1.85498C16.2922 1.85498 16.2097 1.88257 16.1272 1.92381C16.0037 2.00615 15.9212 2.14353 15.9212 2.2947V2.37719L15.7563 11.2255L15.9212 14.8114V14.8252C15.9212 14.9212 15.9624 15.0175 16.0311 15.0862C16.1136 15.1823 16.2372 15.251 16.3746 15.251C16.4983 15.251 16.6082 15.1961 16.6906 15.1274C16.773 15.0449 16.8279 14.935 16.8279 14.8114L16.8417 14.4542L17.0203 11.239V11.2391Z" fill="url(#paint5_linear_28_4489)"/>
<path d="M17.0203 11.2391L16.8279 2.3085C16.8279 2.15733 16.7456 2.01995 16.6219 1.93746C16.5532 1.89622 16.4708 1.85498 16.3746 1.85498C16.2922 1.85498 16.2097 1.88257 16.1272 1.92381C16.0037 2.00615 15.9212 2.14353 15.9212 2.2947V2.37719L15.7563 11.2255L15.9212 14.8114V14.8252C15.9212 14.9212 15.9624 15.0175 16.0311 15.0862C16.1136 15.1823 16.2372 15.251 16.3746 15.251C16.4983 15.251 16.6082 15.1961 16.6906 15.1274C16.773 15.0449 16.8279 14.935 16.8279 14.8114L16.8417 14.4542L17.0203 11.239V11.2391Z" fill="white"/>
<path d="M6.46861 7.65295C6.45482 7.51557 6.35868 7.41943 6.23496 7.41943C6.11137 7.41943 6.00144 7.51557 6.00144 7.65295L5.71289 11.2254L6.00144 14.9761C6.01523 15.1135 6.11137 15.2096 6.23496 15.2096C6.35868 15.2096 6.46861 15.1135 6.46861 14.9761L6.79827 11.2252L6.46861 7.65295Z" fill="url(#paint6_linear_28_4489)"/>
<path d="M6.46861 7.65295C6.45482 7.51557 6.35868 7.41943 6.23496 7.41943C6.11137 7.41943 6.00144 7.51557 6.00144 7.65295L5.71289 11.2254L6.00144 14.9761C6.01523 15.1135 6.11137 15.2096 6.23496 15.2096C6.35868 15.2096 6.46861 15.1135 6.46861 14.9761L6.79827 11.2252L6.46861 7.65295Z" fill="white"/>
<path d="M7.64998 5.15234C7.5126 5.15234 7.38902 5.26227 7.38902 5.41345L7.11426 11.2252L7.38888 14.9761C7.40267 15.1272 7.51246 15.237 7.64984 15.237C7.78722 15.237 7.91095 15.1272 7.91095 14.9761L8.22695 11.2252L7.91095 5.41345C7.91095 5.27607 7.78722 5.15234 7.64984 5.15234H7.64998Z" fill="url(#paint7_linear_28_4489)"/>
<path d="M7.64998 5.15234C7.5126 5.15234 7.38902 5.26227 7.38902 5.41345L7.11426 11.2252L7.38888 14.9761C7.40267 15.1272 7.51246 15.237 7.64984 15.237C7.78722 15.237 7.91095 15.1272 7.91095 14.9761L8.22695 11.2252L7.91095 5.41345C7.91095 5.27607 7.78722 5.15234 7.64984 5.15234H7.64998Z" fill="white"/>
<path d="M9.35379 14.9759L9.64234 11.2388L9.35379 4.09422C9.34 3.92939 9.21642 3.80566 9.05159 3.80566C8.88662 3.80566 8.76304 3.92939 8.74925 4.09422L8.48828 11.2388L8.74925 14.9759C8.74925 15.1407 8.88662 15.2644 9.05159 15.2644C9.21642 15.2782 9.34014 15.1407 9.35379 14.9759Z" fill="url(#paint8_linear_28_4489)"/>
<path d="M9.35379 14.9759L9.64234 11.2388L9.35379 4.09422C9.34 3.92939 9.21642 3.80566 9.05159 3.80566C8.88662 3.80566 8.76304 3.92939 8.74925 4.09422L8.48828 11.2388L8.74925 14.9759C8.74925 15.1407 8.88662 15.2644 9.05159 15.2644C9.21642 15.2782 9.34014 15.1407 9.35379 14.9759Z" fill="white"/>
<path d="M18.1056 1.08543C18.0311 1.0402 17.9455 1.01639 17.8583 1.0166C17.7484 1.0166 17.6386 1.05784 17.5561 1.12653C17.4462 1.20902 17.3775 1.3464 17.3775 1.49757V1.55246L17.1851 11.2525L17.2813 13.0387L17.3775 14.7835C17.3775 15.0446 17.5973 15.2507 17.8583 15.2507C18.1194 15.2507 18.3255 15.0308 18.3393 14.7698L18.5453 11.2388L18.3393 1.49757C18.3255 1.31895 18.243 1.16778 18.1056 1.08529V1.08543Z" fill="url(#paint9_linear_28_4489)"/>
<path d="M18.1056 1.08543C18.0311 1.0402 17.9455 1.01639 17.8583 1.0166C17.7484 1.0166 17.6386 1.05784 17.5561 1.12653C17.4462 1.20902 17.3775 1.3464 17.3775 1.49757V1.55246L17.1851 11.2525L17.2813 13.0387L17.3775 14.7835C17.3775 15.0446 17.5973 15.2507 17.8583 15.2507C18.1194 15.2507 18.3255 15.0308 18.3393 14.7698L18.5453 11.2388L18.3393 1.49757C18.3255 1.31895 18.243 1.16778 18.1056 1.08529V1.08543Z" fill="white"/>
<path d="M0.752975 13.2861C0.821665 13.2861 0.876561 13.2311 0.890354 13.1487L1.19256 11.2251L0.890354 9.2741C0.876561 9.19175 0.821665 9.13672 0.752975 9.13672C0.716562 9.13679 0.681661 9.15129 0.655914 9.17704C0.630166 9.20278 0.615669 9.23769 0.615596 9.2741L0.354492 11.2251L0.615596 13.1487C0.615596 13.2311 0.684285 13.2861 0.752975 13.2861Z" fill="white"/>
<path d="M2.0581 14.4539C2.12679 14.4539 2.19548 14.399 2.20913 14.3167L2.60775 11.2253L2.20913 8.06525C2.19534 7.98277 2.14044 7.92773 2.0581 7.92773C1.98941 7.92773 1.92072 7.98277 1.90692 8.06525L1.56348 11.2253L1.90692 14.3167C1.92072 14.399 1.97561 14.4541 2.0581 14.4541V14.4539Z" fill="white"/>
<path d="M3.4321 15.0171C3.52824 15.0171 3.59693 14.9484 3.61072 14.8384L3.98176 11.2249L3.61072 7.47403C3.59693 7.37789 3.52824 7.29541 3.4321 7.29541C3.33597 7.29541 3.26728 7.3641 3.25348 7.47403L2.92383 11.2249L3.25348 14.8384C3.26728 14.9346 3.33597 15.0171 3.4321 15.0171Z" fill="url(#paint10_linear_28_4489)"/>
<path d="M3.4321 15.0171C3.52824 15.0171 3.59693 14.9484 3.61072 14.8384L3.98176 11.2249L3.61072 7.47403C3.59693 7.37789 3.52824 7.29541 3.4321 7.29541C3.33597 7.29541 3.26728 7.3641 3.25348 7.47403L2.92383 11.2249L3.25348 14.8384C3.26728 14.9346 3.33597 15.0171 3.4321 15.0171Z" fill="white"/>
<path d="M31.1998 6.62234C30.6091 6.62234 30.0457 6.74607 29.5237 6.95214C29.1802 3.06386 25.9102 0 21.9257 0C20.9807 0.000716968 20.0442 0.17777 19.1641 0.522069C18.8344 0.645793 18.752 0.783172 18.752 1.03048V14.7561C18.752 15.0172 18.958 15.2233 19.2191 15.2508H31.2136C33.6042 15.2508 35.5416 13.341 35.5416 10.9503C35.5278 8.55972 33.5906 6.62234 31.1998 6.62234Z" fill="white"/>
<path d="M3.80297 17.8614C3.2947 17.7378 3.15732 17.6828 3.15732 17.4767C3.15732 17.3393 3.26725 17.1882 3.6107 17.1882C3.89925 17.1882 4.13277 17.3119 4.33897 17.5178L4.80601 17.0646C4.50366 16.7486 4.13277 16.5562 3.63814 16.5562C3.00614 16.5562 2.49773 16.9134 2.49773 17.4905C2.49773 18.1225 2.91001 18.3148 3.50077 18.4385C4.10532 18.5759 4.21525 18.672 4.21525 18.8781C4.21525 19.1254 4.03663 19.2215 3.65194 19.2215C3.34959 19.2215 3.06104 19.1117 2.82752 18.8506L2.36035 19.2628C2.60766 19.62 3.07483 19.8399 3.5969 19.8399C4.47621 19.8399 4.84725 19.4277 4.84725 18.8232C4.8747 18.1499 4.31139 17.9713 3.80311 17.8614H3.80297ZM6.75704 16.5699C5.87773 16.5699 5.36932 17.243 5.36932 18.2186C5.36932 19.1941 5.89139 19.8673 6.7569 19.8673C7.62256 19.8673 8.14463 19.1942 8.14463 18.2186C8.14463 17.2432 7.62256 16.5699 6.75704 16.5699ZM6.75704 19.2217C6.23483 19.2217 6.02877 18.7819 6.02877 18.2048C6.02877 17.6279 6.24863 17.1883 6.75704 17.1883C7.27911 17.1883 7.48532 17.6279 7.48532 18.2048C7.48532 18.7819 7.26532 19.2217 6.75704 19.2217ZM10.7277 18.4111C10.7277 18.9193 10.4804 19.2353 10.0682 19.2353C9.65608 19.2353 9.40876 18.9057 9.40876 18.3973V16.611H8.76297V18.4111C8.76297 19.3453 9.28504 19.8673 10.0544 19.8673C10.865 19.8673 11.346 19.3316 11.346 18.4111V16.6248H10.7002V18.4111H10.7278H10.7277ZM14.1213 17.9713C14.1213 18.1499 14.1351 18.5484 14.1351 18.672C14.0937 18.5897 13.9839 18.4247 13.9152 18.3148L12.7748 16.6248H12.1566V19.8262H12.7886V18.4111C12.7886 18.2324 12.7748 17.8339 12.7748 17.7104C12.8162 17.7927 12.926 17.9575 12.9947 18.0676L14.1626 19.8124H14.7397V16.611H14.1075V17.9713H14.1213ZM16.5806 16.6112H15.5777V19.8124H16.5257C17.3501 19.8124 18.1608 19.3316 18.1608 18.2186C18.1608 17.0371 17.4875 16.6112 16.5806 16.6112ZM16.5257 19.1941H16.2097V17.2432H16.5532C17.2264 17.2432 17.515 17.5728 17.515 18.2186C17.515 18.7957 17.199 19.1941 16.5257 19.1941ZM20.1392 17.2019C20.4278 17.2019 20.6063 17.3255 20.73 17.5454L21.3208 17.2706C21.1147 16.8585 20.7575 16.5562 20.1529 16.5562C19.3148 16.5562 18.7377 17.2294 18.7377 18.2048C18.7377 19.2079 19.301 19.8537 20.1391 19.8537C20.7162 19.8537 21.1009 19.5789 21.3208 19.1254L20.7849 18.8095C20.6201 19.0979 20.4415 19.2217 20.1529 19.2217C19.6721 19.2217 19.3973 18.7819 19.3973 18.2048C19.3973 17.6141 19.6721 17.2019 20.1392 17.2019ZM22.5161 16.6112H21.8704V19.8124H23.7939V19.1804H22.5161V16.6112ZM25.4838 16.5698C24.6045 16.5698 24.0962 17.2432 24.0962 18.2186C24.0962 19.1941 24.6183 19.8673 25.4838 19.8673C26.3631 19.8673 26.8715 19.1942 26.8715 18.2186C26.8715 17.2432 26.3631 16.5699 25.4839 16.5699L25.4838 16.5698ZM25.4838 19.2217C24.9617 19.2217 24.7555 18.7819 24.7555 18.2048C24.7555 17.6279 24.9755 17.1883 25.4838 17.1883C26.006 17.1883 26.2121 17.6279 26.2121 18.2048C26.2121 18.7819 26.006 19.2217 25.4838 19.2217ZM29.4546 18.4111C29.4546 18.9193 29.2072 19.2353 28.7951 19.2353C28.3828 19.2353 28.1355 18.9057 28.1355 18.3973V16.611H27.4899V18.4111C27.4899 19.3453 28.0119 19.8673 28.7813 19.8673C29.5919 19.8673 30.0728 19.3316 30.0728 18.4111V16.6248H29.4271V18.4111H29.4546ZM31.9001 16.611H30.8972V19.8124H31.8452C32.6696 19.8124 33.4802 19.3316 33.4802 18.2186C33.4802 17.0371 32.807 16.6112 31.9002 16.6112L31.9001 16.611ZM31.8452 19.1941H31.543V17.2432H31.8864C32.5595 17.2432 32.8344 17.5728 32.8344 18.2186C32.8344 18.7957 32.5186 19.1941 31.8452 19.1941Z" fill="white"/>
</g>
<defs>
<linearGradient id="paint0_linear_28_4489" x1="14.9077" y1="-0.000170386" x2="14.9077" y2="15.2745" gradientUnits="userSpaceOnUse">
<stop stop-color="#F6871F"/>
<stop offset="0.2393" stop-color="#F57E20"/>
<stop offset="0.6262" stop-color="#F36621"/>
<stop offset="1" stop-color="#F04923"/>
</linearGradient>
<linearGradient id="paint1_linear_28_4489" x1="13.4371" y1="0.00012064" x2="13.4371" y2="15.2748" gradientUnits="userSpaceOnUse">
<stop stop-color="#F6871F"/>
<stop offset="0.2393" stop-color="#F57E20"/>
<stop offset="0.6262" stop-color="#F36621"/>
<stop offset="1" stop-color="#F04923"/>
</linearGradient>
<linearGradient id="paint2_linear_28_4489" x1="10.5291" y1="0.000132967" x2="10.5291" y2="15.2745" gradientUnits="userSpaceOnUse">
<stop stop-color="#F6871F"/>
<stop offset="0.2393" stop-color="#F57E20"/>
<stop offset="0.6262" stop-color="#F36621"/>
<stop offset="1" stop-color="#F04923"/>
</linearGradient>
<linearGradient id="paint3_linear_28_4489" x1="11.9772" y1="0.000106272" x2="11.9772" y2="15.2747" gradientUnits="userSpaceOnUse">
<stop stop-color="#F6871F"/>
<stop offset="0.2393" stop-color="#F57E20"/>
<stop offset="0.6262" stop-color="#F36621"/>
<stop offset="1" stop-color="#F04923"/>
</linearGradient>
<linearGradient id="paint4_linear_28_4489" x1="4.84906" y1="-0.000106623" x2="4.84906" y2="15.2745" gradientUnits="userSpaceOnUse">
<stop stop-color="#F6871F"/>
<stop offset="0.2393" stop-color="#F57E20"/>
<stop offset="0.6262" stop-color="#F36621"/>
<stop offset="1" stop-color="#F04923"/>
</linearGradient>
<linearGradient id="paint5_linear_28_4489" x1="16.3903" y1="0.000170273" x2="16.3903" y2="15.275" gradientUnits="userSpaceOnUse">
<stop stop-color="#F6871F"/>
<stop offset="0.2393" stop-color="#F57E20"/>
<stop offset="0.6262" stop-color="#F36621"/>
<stop offset="1" stop-color="#F04923"/>
</linearGradient>
<linearGradient id="paint6_linear_28_4489" x1="6.25188" y1="0.000193111" x2="6.25188" y2="15.2748" gradientUnits="userSpaceOnUse">
<stop stop-color="#F6871F"/>
<stop offset="0.2393" stop-color="#F57E20"/>
<stop offset="0.6262" stop-color="#F36621"/>
<stop offset="1" stop-color="#F04923"/>
</linearGradient>
<linearGradient id="paint7_linear_28_4489" x1="7.66611" y1="7.73911e-05" x2="7.66611" y2="15.2746" gradientUnits="userSpaceOnUse">
<stop stop-color="#F6871F"/>
<stop offset="0.2393" stop-color="#F57E20"/>
<stop offset="0.6262" stop-color="#F36621"/>
<stop offset="1" stop-color="#F04923"/>
</linearGradient>
<linearGradient id="paint8_linear_28_4489" x1="9.07009" y1="-0.000222696" x2="9.07009" y2="15.2745" gradientUnits="userSpaceOnUse">
<stop stop-color="#F6871F"/>
<stop offset="0.2393" stop-color="#F57E20"/>
<stop offset="0.6262" stop-color="#F36621"/>
<stop offset="1" stop-color="#F04923"/>
</linearGradient>
<linearGradient id="paint9_linear_28_4489" x1="17.8657" y1="-0.000137881" x2="17.8657" y2="15.2746" gradientUnits="userSpaceOnUse">
<stop stop-color="#F6871F"/>
<stop offset="0.2393" stop-color="#F57E20"/>
<stop offset="0.6262" stop-color="#F36621"/>
<stop offset="1" stop-color="#F04923"/>
</linearGradient>
<linearGradient id="paint10_linear_28_4489" x1="3.45726" y1="-0.000312861" x2="3.45726" y2="15.2745" gradientUnits="userSpaceOnUse">
<stop stop-color="#F6871F"/>
<stop offset="0.2393" stop-color="#F57E20"/>
<stop offset="0.6262" stop-color="#F36621"/>
<stop offset="1" stop-color="#F04923"/>
</linearGradient>
<clipPath id="clip0_28_4489">
<rect width="35.3103" height="20" fill="white" transform="translate(0.354492)"/>
</clipPath>
</defs>
</svg>
