<svg width="29" height="20" viewBox="0 0 29 20" fill="none" xmlns="http://www.w3.org/2000/svg">
<g clip-path="url(#clip0_28_4510)">
<path d="M14.2676 -0.00292969H14.4253C15.882 0.00238677 23.263 0.0555516 25.2532 0.590742C25.8548 0.754078 26.403 1.07245 26.8431 1.51405C27.2831 1.95564 27.5995 2.50499 27.7608 3.1072C27.9397 3.78061 28.0656 4.67201 28.1506 5.59175L28.1684 5.77606L28.2073 6.23682L28.2215 6.42112C28.3367 8.04087 28.3509 9.55783 28.3527 9.88922V10.0221C28.3509 10.3659 28.3349 11.9857 28.2073 13.6728L28.1932 13.8588L28.1772 14.0431C28.0886 15.0568 27.9575 16.0634 27.7608 16.8042C27.6 17.4066 27.2838 17.9562 26.8436 18.3979C26.4035 18.8396 25.855 19.1578 25.2532 19.3206C23.1975 19.8735 15.384 19.9125 14.3013 19.9143H14.0496C13.502 19.9143 11.2372 19.9037 8.86253 19.8221L8.56126 19.8115L8.40709 19.8044L8.10405 19.792L7.80101 19.7796C5.83392 19.6928 3.96076 19.5528 3.09772 19.3188C2.49606 19.1562 1.94771 18.8382 1.50761 18.3969C1.06752 17.9555 0.751121 17.4063 0.590127 16.8042C0.393418 16.0652 0.262278 15.0568 0.173671 14.0431L0.159494 13.8571L0.145316 13.6728C0.0578565 12.472 0.00939217 11.2686 0 10.0647L0 9.84669C0.0035443 9.46568 0.0177215 8.14897 0.113418 6.6958L0.125823 6.51327L0.131139 6.42112L0.145316 6.23682L0.184304 5.77606L0.202025 5.59175C0.287089 4.67201 0.412911 3.77884 0.591899 3.1072C0.752622 2.50475 1.0689 1.95514 1.50901 1.51347C1.94913 1.0718 2.49762 0.753588 3.09949 0.590742C3.96253 0.360362 5.8357 0.218589 7.80278 0.129982L8.10405 0.117577L8.40886 0.106944L8.56126 0.101628L8.8643 0.0892225C10.5509 0.0349496 12.2381 0.00481969 13.9256 -0.00115745H14.2676V-0.00292969ZM11.3418 5.68568V14.2239L18.7086 9.95656L11.3418 5.68568Z" fill="white"/>
</g>
<defs>
<clipPath id="clip0_28_4510">
<rect width="28.3544" height="20" fill="white"/>
</clipPath>
</defs>
</svg>
